<svg id="グループ_674" data-name="グループ 674" xmlns="http://www.w3.org/2000/svg" xmlns:xlink="http://www.w3.org/1999/xlink" width="148.827" height="79.834" viewBox="0 0 148.827 79.834">
  <defs>
    <clipPath id="clip-path">
      <path id="パス_205" data-name="パス 205" d="M0-40.1H148.827v-79.834H0Z" transform="translate(0 119.929)" fill="#fff"/>
    </clipPath>
  </defs>
  <g id="グループ_673" data-name="グループ 673" transform="translate(0 0)" clip-path="url(#clip-path)">
    <g id="グループ_671" data-name="グループ 671" transform="translate(0 45.287)">
      <path id="パス_203" data-name="パス 203" d="M0-.781V31.628H3.6V17.537H6.754c7.386,0,10.252-4.519,10.252-9.086A9.028,9.028,0,0,0,14.042,1.5C11.856-.392,9.135-.781,5.879-.781Zm3.6,3.4H6.268c2.333,0,7.143.486,7.143,5.637,0,3.741-2.575,5.879-6.851,5.879H3.6ZM40.329,31.628h3.984L29.786-2.336,14.869,31.628h3.984l3.888-9.135h13.8ZM24.149,19.092,29.688,6.119,35.13,19.092ZM61.562,2.62v-3.4H42.224v3.4H50.1V31.628h3.6V2.62Zm3.887-3.4V31.628h3.6V17.44h.923l9.864,14.188H84.2L73.9,17.148c4.907-.34,8.163-3.984,8.163-8.94A8.457,8.457,0,0,0,78.52,1.017c-2.43-1.652-5.685-1.8-7.872-1.8Zm3.6,3.4h2.186a9.245,9.245,0,0,1,4.665.923,5.043,5.043,0,0,1,2.575,4.762c0,3.79-2.672,5.928-7.143,5.928H69.045Zm34.935,29.591a16.545,16.545,0,0,0,16.86-16.764,16.861,16.861,0,0,0-33.72,0,16.544,16.544,0,0,0,16.86,16.764m0-30.125a13.221,13.221,0,0,1,13.168,13.361,13.169,13.169,0,1,1-26.335,0A13.221,13.221,0,0,1,103.981,2.086m22.5-2.867V31.628h12.536v-3.4h-8.941V-.781Z" transform="translate(0 2.336)" fill="#fff"/>
    </g>
    <g id="グループ_672" data-name="グループ 672" transform="translate(0 0)">
      <path id="パス_204" data-name="パス 204" d="M0-.781V31.628H8.066c2.235,0,5.2-.1,7.774-2.138a8.956,8.956,0,0,0,3.3-7,8.124,8.124,0,0,0-6.171-8.163A7.314,7.314,0,0,0,16.18,7.965,8.054,8.054,0,0,0,13.265,1.26C10.884-.635,7.629-.781,5.831-.781Zm3.6,3.4H6.414c1.02,0,6.268.1,6.268,5.443,0,5-4.47,5.393-6.365,5.393H3.6Zm0,14.042H7.288c2.575,0,4.276.292,5.49.972A5.251,5.251,0,0,1,15.548,22.4a5.462,5.462,0,0,1-2.137,4.471c-1.555,1.214-3.6,1.36-5.685,1.36H3.6Zm38-17.443H24.78V31.628H41.592v-3.4H28.376V15.642H41.2v-3.4H28.376V2.62H41.592ZM68.9,31.628h3.985L58.355-2.336,43.438,31.628h3.985l3.887-9.135h13.8ZM52.719,19.092,58.258,6.119,63.7,19.092ZM80.074-.781h-3.6V20.064c0,2.721.292,5.345,2.04,7.774a11.448,11.448,0,0,0,9.475,4.373,11.447,11.447,0,0,0,9.475-4.373c1.749-2.429,2.041-5.053,2.041-7.774V-.781h-3.6V19.092c0,2.721,0,5.685-2.575,7.871a8.658,8.658,0,0,1-10.689,0c-2.575-2.186-2.575-5.15-2.575-7.871Zm42.661,3.4v-3.4H103.4v3.4h7.872V31.628h3.6V2.62Zm11.758,29.008h3.6V17.683L148.827-.781h-4.178L136.291,13.7l-8.26-14.48h-4.178l10.641,18.464Z" transform="translate(0 2.336)" fill="#fff"/>
    </g>
  </g>
</svg>
