<svg id="グループ_678" data-name="グループ 678" xmlns="http://www.w3.org/2000/svg" xmlns:xlink="http://www.w3.org/1999/xlink" width="182.402" height="81" viewBox="0 0 182.402 81">
  <defs>
    <clipPath id="clip-path">
      <path id="パス_208" data-name="パス 208" d="M0-40.681H182.4v-81H0Z" transform="translate(0 121.681)" fill="#fff"/>
    </clipPath>
  </defs>
  <g id="グループ_677" data-name="グループ 677" clip-path="url(#clip-path)">
    <g id="グループ_675" data-name="グループ 675" transform="translate(1.118 45.773)">
      <path id="パス_206" data-name="パス 206" d="M0-.683V31.726H12.536v-3.4H3.6V-.683Zm33.235,0H16.422V31.726H33.235v-3.4H20.018V15.74H32.846v-3.4H20.018V2.718H33.235ZM56.217,3.835A9.8,9.8,0,0,0,53.058.24a8.779,8.779,0,0,0-5.2-1.458c-5.248,0-9.086,3.353-9.086,8.358a6.73,6.73,0,0,0,2.235,5.3,14.33,14.33,0,0,0,4.324,2.672l2.916,1.361A14.137,14.137,0,0,1,52.135,18.7a4.834,4.834,0,0,1,1.6,3.79,6.134,6.134,0,0,1-6.511,6.414,6.192,6.192,0,0,1-4.664-1.8,7.645,7.645,0,0,1-1.944-4.13l-3.5.972a11.746,11.746,0,0,0,3.012,5.733,9.665,9.665,0,0,0,7.046,2.624c5.831,0,10.252-3.985,10.252-9.961A7.8,7.8,0,0,0,55.1,16.468a15.742,15.742,0,0,0-5.005-3.061l-3.109-1.361a10.574,10.574,0,0,1-3.4-2.041,3.4,3.4,0,0,1-1.215-2.818c0-3.013,2.235-5,5.442-5A5.829,5.829,0,0,1,51.455,3.3a7.81,7.81,0,0,1,1.9,2.43Zm23.176,0A9.8,9.8,0,0,0,76.235.24a8.78,8.78,0,0,0-5.2-1.458c-5.248,0-9.086,3.353-9.086,8.358a6.73,6.73,0,0,0,2.235,5.3,14.33,14.33,0,0,0,4.324,2.672l2.916,1.361A14.147,14.147,0,0,1,75.312,18.7a4.834,4.834,0,0,1,1.6,3.79A6.636,6.636,0,0,1,65.74,27.109a7.645,7.645,0,0,1-1.944-4.13l-3.5.972a11.747,11.747,0,0,0,3.013,5.733,9.665,9.665,0,0,0,7.046,2.624c5.831,0,10.252-3.985,10.252-9.961a7.8,7.8,0,0,0-2.333-5.879,15.732,15.732,0,0,0-5-3.061l-3.109-1.361a10.584,10.584,0,0,1-3.4-2.041,3.4,3.4,0,0,1-1.214-2.818c0-3.013,2.235-5,5.442-5A5.831,5.831,0,0,1,74.632,3.3a7.81,7.81,0,0,1,1.9,2.43Zm21.962,28.474a16.545,16.545,0,0,0,16.86-16.764,16.861,16.861,0,0,0-33.72,0,16.545,16.545,0,0,0,16.86,16.764m0-30.125a13.221,13.221,0,0,1,13.168,13.361,13.169,13.169,0,1,1-26.335,0A13.221,13.221,0,0,1,101.355,2.184m26.092,29.542V6.7l25.266,26.481V-.683h-3.6V24.437L123.852-2.044v33.77Z" transform="translate(0 2.044)" fill="#fff"/>
    </g>
    <g id="グループ_676" data-name="グループ 676" transform="translate(0 0)">
      <path id="パス_207" data-name="パス 207" d="M-1.854-17.2,1.352-39.749,12.237-15.843l11.03-23.906L26.327-17.2H30.02L24.967-51.459l-12.682,27.4L-.154-51.41-5.547-17.2Zm60.056,0h3.984L47.657-51.167,32.741-17.2h3.984l3.887-9.135h13.8ZM42.021-29.74,47.56-42.713,53-29.74ZM69.376-49.613h-3.6V-17.2h3.6V-31.149l.923-.923L83.564-17.2H88.52L72.875-34.5,88.034-49.613H83.176l-13.8,13.9Zm39.843,0H92.407V-17.2h16.812v-3.4H96V-33.19H108.83v-3.4H96v-9.62h13.216Zm3.887,16.781H123.8v-3.6H113.106Zm19.922-16.781h-3.6v20.845c0,2.721.292,5.345,2.041,7.774a11.449,11.449,0,0,0,9.475,4.373,11.45,11.45,0,0,0,9.475-4.373c1.749-2.43,2.04-5.054,2.04-7.774V-49.613h-3.6V-29.74c0,2.721,0,5.685-2.576,7.872a9,9,0,0,1-5.345,1.846,9,9,0,0,1-5.345-1.846c-2.575-2.187-2.575-5.15-2.575-7.872Zm26.821,0V-17.2h3.6V-31.3H166.6c7.386,0,10.252-4.519,10.252-9.086a9.029,9.029,0,0,0-2.964-6.948c-2.187-1.9-4.908-2.284-8.163-2.284Zm3.6,3.4h2.673c2.333,0,7.143.486,7.143,5.636,0,3.741-2.576,5.879-6.851,5.879h-2.964Z" transform="translate(5.547 51.459)" fill="#fff"/>
    </g>
  </g>
</svg>
