<svg id="QUI_logo" xmlns="http://www.w3.org/2000/svg" width="178.618" height="46.385" viewBox="0 0 178.618 46.385">
  <path id="パス_1" data-name="パス 1" d="M401.434,3.2V3h-21.2v.2h0v.078c7.117,0,8.2,0,8.2,7.742V27.251c0,6.131-.2,10.24-1.536,13.165a9.475,9.475,0,0,1-3.813,3.925,17.889,17.889,0,0,1-13.943,0,9.521,9.521,0,0,1-3.6-3.5c-.048-.094-.1-.18-.146-.276l-.042-.082c-1.366-2.933-1.568-7.057-1.568-13.227V11.018c0-7.742,1.088-7.742,8.2-7.742V3.2h0V3h-21.2v.2h0v.078c7.115,0,8.2,0,8.2,7.742v18.95c0,10.24,6,16.355,16.079,16.355h2.094c10.06,0,16.065-6.115,16.065-16.355V11.018c0-7.742,1.09-7.742,8.2-7.742V3.2Z" transform="translate(-280.61 -2.4)" fill="#707070"/>
  <path id="パス_2" data-name="パス 2" d="M375.2,45.929h-.688c-10.16,0-16.221-6.165-16.221-16.489V10.482c0-7.6-.92-7.6-8.072-7.6h-.134V2.33h21.476v.544h-.134c-7.151,0-8.07,0-8.07,7.6V26.707c0,6.517.24,10.344,1.556,13.171l.038.076a1.761,1.761,0,0,0,.086.162l.06.114a9.446,9.446,0,0,0,3.541,3.453,17.756,17.756,0,0,0,13.823,0,9.4,9.4,0,0,0,3.747-3.865c1.28-2.8,1.522-6.769,1.522-13.1V10.482c0-7.6-.918-7.6-8.072-7.6h-.134V2.33h21.478v.544h-.126c-7.151,0-8.071,0-8.071,7.6v18.95c0,10.324-6.055,16.489-16.2,16.489-.212,0-.764.012-1.066,0ZM350.356,2.606c6.949,0,8.2.05,8.2,7.876v18.95c0,10.156,5.963,16.221,15.949,16.221.16,0,.738.012,1.028,0s.85,0,1.028,0h.036c9.976,0,15.933-6.065,15.933-16.221V10.482c0-7.826,1.256-7.876,8.2-7.876H379.79c6.947,0,8.2.05,8.2,7.876V26.713c0,6.371-.248,10.364-1.55,13.221a9.666,9.666,0,0,1-3.865,3.985,18.015,18.015,0,0,1-14.065.006,9.7,9.7,0,0,1-3.637-3.561l-.062-.112c-.03-.058-.062-.114-.088-.172l-.04-.078c-1.34-2.877-1.584-6.731-1.584-13.289V10.482c0-7.826,1.256-7.876,8.2-7.876H350.356Z" transform="translate(-280.058 -1.864)" fill="#707070"/>
  <path id="パス_3" data-name="パス 3" d="M825.155,46.13v-.078c-4.639,0-6.155,0-6.155-5.421V8.693c0-5.423,1.517-5.423,6.155-5.423V3.2h0V3H808.38v.27c4.639,0,6.155,0,6.155,5.423V40.631c0,5.421-1.516,5.421-6.155,5.421v.276h16.775v-.2h0Z" transform="translate(-646.672 -2.4)" fill="#707070"/>
  <path id="パス_4" data-name="パス 4" d="M824.753,45.9H807.71V45.36h.134c4.625,0,6.021,0,6.021-5.289V8.133c0-5.293-1.4-5.293-6.021-5.293h-.134V2.3h17.044v.54h-.134c-4.625,0-6.021,0-6.021,5.289V40.071c0,5.289,1.4,5.289,6.021,5.289h.134Zm-16.776-.268h16.509c-4.477,0-6.157-.054-6.157-5.555V8.133c0-5.5,1.68-5.555,6.157-5.557H807.978c4.477,0,6.155.056,6.155,5.557V40.071c0,5.5-1.678,5.555-6.155,5.555Z" transform="translate(-646.136 -1.84)" fill="#707070"/>
  <path id="パス_5" data-name="パス 5" d="M36.308,7.013a22.572,22.572,0,0,0-6.769-4.657A18.982,18.982,0,0,0,21.765.67a18.24,18.24,0,0,0-7.5,1.684A23.138,23.138,0,0,0,7.5,7.013a24.6,24.6,0,0,0-4.923,7.013A20.31,20.31,0,0,0,.667,22.8,22.852,22.852,0,0,0,6.648,38.143a21.692,21.692,0,0,0,6.7,4.891,19.51,19.51,0,0,0,8.414,1.834,18.506,18.506,0,0,0,8.256-1.892,23.1,23.1,0,0,0,2.134-1.2,17.164,17.164,0,0,0,8.216,4.989l.28-.226A10.868,10.868,0,0,1,36.14,43.1a23.068,23.068,0,0,1-1.834-2.839A22.458,22.458,0,0,0,36.74,38a23.652,23.652,0,0,0,4.495-7.069,21.218,21.218,0,0,0,1.64-8.128,21.544,21.544,0,0,0-1.8-8.784,23.023,23.023,0,0,0-4.767-7.005ZM28.592,43.306a15.664,15.664,0,0,1-6.827,1.358,9.944,9.944,0,0,1-9.176-5.257l-.076-.152a8.023,8.023,0,0,1-.722-2.8v-.126a5.673,5.673,0,0,1,1.544-4.269,8.065,8.065,0,0,1,5.829-2.2,9.236,9.236,0,0,1,4.3,1.018c2.57,1.358,3.929,3.665,5.365,6.105A31.665,31.665,0,0,0,31.6,41.152,10.852,10.852,0,0,1,28.592,43.306Zm7.1-11a19.828,19.828,0,0,1-2.2,6.333,42.082,42.082,0,0,1-1.534-4.347c-.67-2.068-1.144-3.863-2.765-5.723a8.366,8.366,0,0,0-5.631-2.585h-.656a12.714,12.714,0,0,0-8.49,3.543c-3.753,3.329-4.123,8.382-4.159,9.508a19.231,19.231,0,0,1-2.428-6.721,53.5,53.5,0,0,1-.744-9.5,57.3,57.3,0,0,1,.558-8.078A22.02,22.02,0,0,1,9.8,7.705a12.813,12.813,0,0,1,4.483-4.969A13.659,13.659,0,0,1,21.765.878a13.669,13.669,0,0,1,7.479,1.858A12.821,12.821,0,0,1,33.725,7.7a21.99,21.99,0,0,1,2.156,7.019A57.432,57.432,0,0,1,36.44,22.8a53.576,53.576,0,0,1-.744,9.506Z" transform="translate(-0.532 -0.536)" fill="#707070"/>
  <path id="パス_6" data-name="パス 6" d="M39.863,46.385l-.066-.02a17.535,17.535,0,0,1-8.2-4.943,23.006,23.006,0,0,1-2.05,1.144,18.658,18.658,0,0,1-8.316,1.906,19.652,19.652,0,0,1-8.472-1.846A21.868,21.868,0,0,1,6.014,37.7,22.992,22.992,0,0,1,0,22.266a20.466,20.466,0,0,1,1.922-8.834A24.763,24.763,0,0,1,6.87,6.383a23.251,23.251,0,0,1,6.8-4.687A18.382,18.382,0,0,1,21.229,0a19.136,19.136,0,0,1,7.83,1.7,22.758,22.758,0,0,1,6.8,4.687h0a23.154,23.154,0,0,1,4.8,7.045,21.661,21.661,0,0,1,1.8,8.838,21.364,21.364,0,0,1-1.656,8.18,23.767,23.767,0,0,1-4.521,7.107,22.732,22.732,0,0,1-2.36,2.2,22.659,22.659,0,0,0,1.77,2.725,10.79,10.79,0,0,0,4.461,3.4l.214.082-.178.146c-.11.09-.216.176-.282.226Zm-8.22-5.309.076.084A16.942,16.942,0,0,0,39.8,46.089l.048-.04a11.106,11.106,0,0,1-4.367-3.4,23.143,23.143,0,0,1-1.846-2.855l-.052-.1.086-.07a22.562,22.562,0,0,0,2.42-2.25,23.5,23.5,0,0,0,4.469-7.027,21.08,21.08,0,0,0,1.642-8.082,21.364,21.364,0,0,0-1.778-8.728,22.894,22.894,0,0,0-4.741-6.967h0a22.432,22.432,0,0,0-6.735-4.629q-.906-.4-1.826-.71a10.262,10.262,0,0,1,1.656.858A12.963,12.963,0,0,1,33.31,7.107a22.167,22.167,0,0,1,2.168,7.061,57.433,57.433,0,0,1,.56,8.1,53.871,53.871,0,0,1-.746,9.528h0a20.023,20.023,0,0,1-2.214,6.377l-.132.228-.106-.242a33.065,33.065,0,0,1-1.294-3.591c-.084-.262-.164-.518-.246-.77l-.176-.548a13.069,13.069,0,0,0-2.56-5.127,8.208,8.208,0,0,0-5.531-2.538h-.658a12.549,12.549,0,0,0-8.4,3.509c-3.733,3.315-4.079,8.414-4.109,9.4l-.014.442-.234-.376a19.428,19.428,0,0,1-2.446-6.767,53.807,53.807,0,0,1-.746-9.528,57.289,57.289,0,0,1,.56-8.1A22.149,22.149,0,0,1,9.151,7.107,12.935,12.935,0,0,1,13.68,2.09c.2-.134.422-.262.644-.382-.178.076-.356.152-.536.234A22.956,22.956,0,0,0,7.058,6.573a24.485,24.485,0,0,0-4.9,6.975,20.2,20.2,0,0,0-1.9,8.718A22.72,22.72,0,0,0,6.21,37.523a21.6,21.6,0,0,0,6.663,4.861,18.976,18.976,0,0,0,6.479,1.738,10,10,0,0,1-7.419-5.191l-.076-.154a8.145,8.145,0,0,1-.734-2.849V35.8a5.813,5.813,0,0,1,1.6-4.367,8.191,8.191,0,0,1,5.925-2.246A9.37,9.37,0,0,1,23,30.216c2.6,1.376,3.971,3.7,5.417,6.155a31.411,31.411,0,0,0,2.757,4.153l.076.092-.084.086a11,11,0,0,1-3.053,2.188c-.074.036-.152.074-.228.108.522-.2,1.034-.424,1.54-.672a23.753,23.753,0,0,0,2.122-1.2Zm-13-11.626a7.94,7.94,0,0,0-5.733,2.166,5.557,5.557,0,0,0-1.518,4.169v.126a7.862,7.862,0,0,0,.71,2.751l.074.15a9.862,9.862,0,0,0,9.056,5.183A15.521,15.521,0,0,0,28,42.65h0a10.726,10.726,0,0,0,2.895-2.042,32.539,32.539,0,0,1-2.7-4.091c-1.428-2.424-2.777-4.715-5.315-6.055a9.092,9.092,0,0,0-4.241-1.012ZM21.241.478a13.51,13.51,0,0,0-7.4,1.836A12.7,12.7,0,0,0,9.387,7.231,21.93,21.93,0,0,0,7.247,14.2a57.053,57.053,0,0,0-.556,8.06,53.422,53.422,0,0,0,.742,9.48,19.591,19.591,0,0,0,2.186,6.3c.118-1.624.754-6.125,4.179-9.164a12.806,12.806,0,0,1,8.58-3.577h.652a8.516,8.516,0,0,1,5.733,2.629,13.177,13.177,0,0,1,2.613,5.221l.176.548c.082.252.164.51.246.772a34.537,34.537,0,0,0,1.18,3.335,19.931,19.931,0,0,0,2.05-6.057h0a53.518,53.518,0,0,0,.742-9.48,57.177,57.177,0,0,0-.556-8.068,21.884,21.884,0,0,0-2.142-6.975A12.675,12.675,0,0,0,28.635,2.31,13.564,13.564,0,0,0,21.229.478Z" transform="translate(0.004 0)" fill="#707070"/>
</svg>
