<svg id="tokyubeauty" xmlns="http://www.w3.org/2000/svg" width="391.688" height="218.453" viewBox="0 0 391.688 218.453">
  <path id="パス_64" data-name="パス 64" d="M483.3,242.694v65.22h-7.777v-65.22H463.67V235.5h31.492v7.192Z" transform="translate(-463.406 -234.336)" fill="#fff"/>
  <g id="グループ_366" data-name="グループ 366" transform="translate(66.188)">
    <path id="パス_28" data-name="パス 28" d="M545.378,302.246c15.649,0,28.091-13.508,28.091-30.327,0-16.524-12.443-29.937-28.091-29.937s-28.091,13.413-28.091,29.937c0,16.818,12.443,30.327,28.091,30.327m0,7.192c-20.51,0-36.059-16.719-36.059-37.519,0-20.6,15.549-37.224,36.059-37.224s36.059,16.619,36.059,37.224c0,20.8-15.549,37.519-36.059,37.519" transform="translate(-509.319 -234.695)" fill="#fff"/>
  </g>
  <path id="パス_71" data-name="パス 71" d="M617.87,307.912l-20.025-36.934L617.77,235.5h8.162l-19.92,35.279,20.215,37.129ZM588.418,235.5h7.777v72.412h-7.777Z" transform="translate(-408 -234.336)" fill="#fff"/>
  <path id="パス_75" data-name="パス 75" d="M665.819,307.914V279.337l-26.436-42.96V235.5h8.262L669.9,271.66,692.06,235.5h7.972v.875L673.6,279.337v28.577Z" transform="translate(-385.365 -234.337)" fill="#fff"/>
  <g id="グループ_367" data-name="グループ 367" transform="translate(0.143 1.165)">
    <path id="パス_31" data-name="パス 31" d="M725.341,309.079c-10.012,0-16.619-7.677-16.619-17.2V235.5h7.772v56.373c0,5.541,2.916,10.012,8.847,10.012,5.736,0,8.942-4.471,8.942-10.012V235.5h7.777v56.373c0,9.527-6.706,17.2-16.719,17.2" transform="translate(-354.712 -235.502)" fill="#fff"/>
    <path id="パス_32" data-name="パス 32" d="M471.363,374.086v26.246h2.721c7.387,0,13.413-4.471,13.413-13.218,0-8.457-6.126-13.027-13.513-13.027Zm0-31.878v25.271h.776c7,0,12.538-5.247,12.538-13.123,0-7.967-5.541-12.148-12.733-12.148Zm-7.777-7.192h8.357c11.568,0,20.7,6.607,20.7,18.465a18.292,18.292,0,0,1-8.847,15.844,18.517,18.517,0,0,1,11.763,17.789c0,12.828-9.622,20.31-21.48,20.31h-10.5Z" transform="translate(-463.586 -191.304)" fill="#fff"/>
  </g>
  <path id="パス_65" data-name="パス 65" d="M507.756,335.016h21.575v7.192h-13.8v24.976H527.39v7.1H515.533v26.436h13.8v6.707H507.756Z" transform="translate(-443.825 -190.139)" fill="#fff"/>
  <path id="パス_68" data-name="パス 68" d="M577.581,350.1l-13.994,28.477h27.992Zm17.594,35.669H559.991L549.3,407.636h-7.872v-.78l36.059-72.312h.39l36.059,72.312v.78h-7.972Z" transform="translate(-428.871 -190.348)" fill="#fff"/>
  <g id="グループ_371" data-name="グループ 371" transform="translate(211.041 144.876)">
    <path id="パス_35" data-name="パス 35" d="M626.246,408.592c-10.012,0-16.624-7.677-16.624-17.2V335.015H617.4v56.373c0,5.541,2.916,10.012,8.847,10.012,5.732,0,8.942-4.471,8.942-10.012V335.015h7.777v56.373c0,9.527-6.706,17.2-16.719,17.2" transform="translate(-609.623 -335.015)" fill="#fff"/>
  </g>
  <path id="パス_76" data-name="パス 76" d="M673.023,342.208v65.216h-7.777V342.208H653.393v-7.192h31.488v7.192Z" transform="translate(-379.142 -190.139)" fill="#fff"/>
  <path id="パス_78" data-name="パス 78" d="M719.153,407.425V378.852l-26.436-42.96v-.875h8.262l22.255,36.154,22.16-36.154h7.972v.875l-26.436,42.96v28.572Z" transform="translate(-361.678 -190.138)" fill="#fff"/>
  <g id="グループ_368" data-name="グループ 368" transform="translate(0 95.081)">
    <path id="パス_38" data-name="パス 38" d="M469.028,305.59v18.859h2.023c5.026,0,9.146-3.5,9.146-9.488,0-5.909-4.12-9.371-9.146-9.371Zm-5.541-5.056h7.565c8.193,0,14.886,5.719,14.886,14.427,0,8.752-6.694,14.544-14.886,14.544h-7.565Z" transform="translate(-463.487 -300.534)" fill="#fff"/>
  </g>
  <path id="パス_66" data-name="パス 66" d="M485.119,300.534H495.1v5.056h-4.432v6.65H494.3V317.3h-3.639v7.543H495.1v4.666h-9.977Z" transform="translate(-453.879 -205.453)" fill="#fff"/>
  <g id="グループ_369" data-name="グループ 369" transform="translate(50.207 95.082)">
    <path id="パス_40" data-name="パス 40" d="M503.8,305.587v7.274h.633c1.664,0,3.011-1.282,3.011-3.657,0-2.292-1.347-3.618-3.011-3.618Zm0,12.33v11.589h-5.546V300.535h6.178a8.691,8.691,0,1,1,0,17.382Z" transform="translate(-498.253 -300.535)" fill="#fff"/>
  </g>
  <path id="パス_67" data-name="パス 67" d="M523.647,311.048l-3.722,7.777h7.482Zm6.217,12.833H517.547l-2.73,5.753h-5.623v-.464l14.453-28.932h.16l14.453,28.932v.464h-5.623Z" transform="translate(-443.187 -205.585)" fill="#fff"/>
  <g id="グループ_370" data-name="グループ 370" transform="translate(100.295 95.081)">
    <path id="パス_42" data-name="パス 42" d="M538.482,305.59V312.4h.711c1.664,0,3.011-1.209,3.011-3.5a3.007,3.007,0,0,0-3.011-3.306Zm0,11.589V329.5h-5.545V300.534h6.256c4.835,0,8.756,3.384,8.756,8.362a7.888,7.888,0,0,1-3.449,6.689l4.4,13.92h-5.862l-3.566-12.326h-.988Z" transform="translate(-532.937 -300.534)" fill="#fff"/>
  </g>
  <path id="パス_69" data-name="パス 69" d="M558.741,305.589V329.5H553.2V305.589h-4.354v-5.056h14.254v5.056Z" transform="translate(-425.578 -205.454)" fill="#fff"/>
  <path id="パス_70" data-name="パス 70" d="M578.7,330.012l-8.83-13.028v12.638h-5.346V300.266h.316l14.019,21,14.015-21h.317v29.356h-5.346V316.985l-8.83,13.028Z" transform="translate(-418.612 -205.573)" fill="#fff"/>
  <path id="パス_72" data-name="パス 72" d="M591.01,300.534h9.977v5.056h-4.432v6.65h3.639V317.3h-3.639v7.543h4.432v4.666H591.01Z" transform="translate(-406.849 -205.453)" fill="#fff"/>
  <path id="パス_73" data-name="パス 73" d="M624.854,330.012l-15.484-16.294v15.9h-5.225V300.266h.316l15.484,16.8V300.651h5.225v29.361Z" transform="translate(-401.016 -205.573)" fill="#fff"/>
  <path id="パス_74" data-name="パス 74" d="M634.415,305.589V329.5H628.87V305.589h-4.354v-5.056h14.254v5.056Z" transform="translate(-391.968 -205.454)" fill="#fff"/>
  <g id="グループ_372" data-name="グループ 372" transform="translate(269.531 94.614)">
    <path id="パス_48" data-name="パス 48" d="M651.2,307.676a7.177,7.177,0,0,1,7.287-7.465,7.012,7.012,0,0,1,7.244,7h-5.541a1.865,1.865,0,0,0-1.7-2.023c-.953,0-1.664.893-1.664,2.136,0,1.711,1.07,2.842,4.12,4.826,3.761,2.448,6.334,5.09,6.334,9.289,0,4.744-3.128,8.673-8.591,8.673a8.187,8.187,0,0,1-8.556-8.318h5.624a3.125,3.125,0,0,0,2.933,3.379c1.82,0,2.929-1.477,2.929-3.345,0-2.448-1.742-4.042-5.069-6.182-2.968-1.867-5.346-4.276-5.346-7.972" transform="translate(-650.125 -300.211)" fill="#fff"/>
  </g>
  <path id="パス_77" data-name="パス 77" d="M676.339,305.589V329.5H670.8V305.589h-4.358v-5.056h14.254v5.056Z" transform="translate(-373.348 -205.454)" fill="#fff"/>
  <g id="グループ_373" data-name="グループ 373" transform="translate(313.96 94.613)">
    <path id="パス_50" data-name="パス 50" d="M705.087,315.1c0-5.519-3.882-9.839-9.228-9.839s-9.228,4.319-9.228,9.839c0,5.6,3.882,9.956,9.228,9.956s9.228-4.354,9.228-9.956m-24.2,0a14.969,14.969,0,1,1,14.969,15.012A14.694,14.694,0,0,1,680.89,315.1" transform="translate(-680.89 -300.21)" fill="#fff"/>
    <path id="パス_51" data-name="パス 51" d="M713.247,305.59V312.4h.715c1.659,0,3.007-1.209,3.007-3.5a3.006,3.006,0,0,0-3.007-3.306Zm0,11.589V329.5h-5.541V300.534h6.256c4.831,0,8.747,3.384,8.747,8.362a7.885,7.885,0,0,1-3.444,6.689l4.4,13.92H717.8l-3.561-12.326h-.992Z" transform="translate(-668.98 -300.066)" fill="#fff"/>
  </g>
  <path id="パス_79" data-name="パス 79" d="M724.43,300.534h9.977v5.056h-4.436v6.65h3.644V317.3h-3.644v7.543h4.436v4.666H724.43Z" transform="translate(-347.593 -205.453)" fill="#fff"/>
</svg>
